<svg width="24" height="25" viewBox="0 0 24 25" fill="none" xmlns="http://www.w3.org/2000/svg">
<path d="M21.9999 17.1154V20.1154C22.0011 20.3939 21.944 20.6696 21.8324 20.9248C21.7209 21.1799 21.5572 21.409 21.352 21.5973C21.1468 21.7856 20.9045 21.9289 20.6407 22.0181C20.3769 22.1073 20.0973 22.1405 19.8199 22.1154C16.7428 21.7811 13.7869 20.7296 11.1899 19.0454C8.77376 17.5101 6.72527 15.4616 5.18993 13.0454C3.49991 10.4366 2.44818 7.4664 2.11993 4.37541C2.09494 4.09888 2.12781 3.82017 2.21643 3.55703C2.30506 3.2939 2.4475 3.0521 2.6347 2.84703C2.82189 2.64196 3.04974 2.47812 3.30372 2.36593C3.55771 2.25374 3.83227 2.19567 4.10993 2.19541H7.10993C7.59524 2.19063 8.06572 2.36249 8.43369 2.67894C8.80166 2.9954 9.04201 3.43486 9.10993 3.91541C9.23656 4.87548 9.47138 5.81814 9.80993 6.72541C9.94448 7.08333 9.9736 7.47232 9.89384 7.84629C9.81408 8.22026 9.6288 8.56352 9.35993 8.83541L8.08993 10.1054C9.51349 12.609 11.5864 14.6819 14.0899 16.1054L15.3599 14.8354C15.6318 14.5665 15.9751 14.3813 16.3491 14.3015C16.723 14.2217 17.112 14.2509 17.4699 14.3854C18.3772 14.724 19.3199 14.9588 20.2799 15.0854C20.7657 15.1539 21.2093 15.3986 21.5265 15.7729C21.8436 16.1472 22.0121 16.625 21.9999 17.1154Z" stroke="white" stroke-width="2" stroke-linecap="round" stroke-linejoin="round"/>
</svg>
